<svg width="417" height="351" viewBox="0 0 417 351" fill="none" xmlns="http://www.w3.org/2000/svg">
<g clip-path="url(#clip0_5_10)">
<path d="M345.764 283.243L207.418 220.184L278.654 64.387L417 127.445L345.764 283.243Z" fill="#F2F2F2"/>
<path d="M366.838 192.733L262.106 144.996C261.909 144.906 261.756 144.741 261.68 144.539C261.604 144.336 261.612 144.111 261.702 143.914C261.792 143.717 261.957 143.564 262.16 143.488C262.363 143.413 262.588 143.421 262.786 143.511L367.517 191.247C367.715 191.337 367.868 191.502 367.944 191.705C368.02 191.908 368.012 192.132 367.922 192.329C367.832 192.526 367.667 192.679 367.464 192.755C367.26 192.831 367.036 192.823 366.838 192.733Z" fill="white"/>
<path d="M372.662 179.996L267.93 132.259C267.833 132.214 267.745 132.151 267.672 132.073C267.598 131.994 267.541 131.902 267.504 131.802C267.466 131.701 267.449 131.594 267.453 131.487C267.457 131.38 267.482 131.275 267.526 131.177C267.571 131.08 267.634 130.992 267.713 130.919C267.791 130.846 267.883 130.789 267.984 130.751C268.085 130.714 268.192 130.697 268.299 130.7C268.406 130.704 268.512 130.729 268.609 130.774L373.341 178.511C373.439 178.555 373.527 178.618 373.6 178.697C373.673 178.775 373.73 178.867 373.768 178.968C373.805 179.068 373.823 179.175 373.819 179.282C373.815 179.389 373.79 179.495 373.745 179.592C373.701 179.69 373.637 179.777 373.559 179.851C373.48 179.924 373.388 179.981 373.288 180.018C373.187 180.055 373.08 180.073 372.973 180.069C372.865 180.065 372.76 180.04 372.662 179.996Z" fill="white"/>
<path d="M378.486 167.259L273.754 119.522C273.656 119.477 273.569 119.414 273.495 119.336C273.422 119.257 273.365 119.165 273.328 119.065C273.29 118.964 273.273 118.857 273.277 118.75C273.28 118.643 273.305 118.538 273.35 118.44C273.394 118.343 273.458 118.255 273.536 118.182C273.615 118.109 273.707 118.052 273.808 118.014C273.908 117.977 274.015 117.96 274.123 117.963C274.23 117.967 274.336 117.992 274.433 118.037L379.165 165.774C379.362 165.864 379.515 166.028 379.59 166.231C379.666 166.434 379.658 166.658 379.568 166.855C379.478 167.051 379.313 167.204 379.111 167.28C378.908 167.356 378.683 167.348 378.486 167.259Z" fill="white"/>
<path d="M384.31 154.522L279.578 106.785C279.48 106.74 279.392 106.677 279.319 106.599C279.246 106.52 279.189 106.428 279.151 106.328C279.114 106.227 279.097 106.12 279.1 106.013C279.104 105.906 279.129 105.801 279.174 105.703C279.218 105.606 279.282 105.518 279.36 105.445C279.439 105.372 279.531 105.315 279.632 105.277C279.732 105.24 279.839 105.223 279.947 105.226C280.054 105.23 280.159 105.255 280.257 105.3L384.989 153.037C385.086 153.081 385.174 153.144 385.248 153.223C385.321 153.301 385.378 153.393 385.415 153.494C385.453 153.594 385.47 153.701 385.466 153.808C385.463 153.915 385.438 154.021 385.393 154.118C385.348 154.216 385.285 154.304 385.206 154.377C385.128 154.45 385.036 154.507 384.935 154.544C384.834 154.582 384.727 154.599 384.62 154.595C384.513 154.591 384.407 154.566 384.31 154.522Z" fill="white"/>
<path d="M361.575 204.243L256.843 156.507C256.746 156.462 256.658 156.399 256.585 156.32C256.511 156.242 256.454 156.15 256.417 156.049C256.379 155.949 256.362 155.842 256.366 155.735C256.37 155.628 256.395 155.522 256.439 155.425C256.484 155.327 256.547 155.24 256.626 155.166C256.704 155.093 256.797 155.037 256.897 154.999C256.998 154.962 257.105 154.944 257.212 154.948C257.319 154.952 257.425 154.977 257.523 155.021L362.254 202.758C362.452 202.848 362.605 203.013 362.681 203.215C362.757 203.418 362.749 203.643 362.659 203.84C362.569 204.037 362.404 204.19 362.201 204.266C361.997 204.341 361.772 204.333 361.575 204.243Z" fill="white"/>
<path d="M379.064 135.838L297.255 98.5496C296.795 98.3516 296.424 97.9916 296.212 97.5381C296 97.0846 295.962 96.5691 296.106 96.0897C296.194 95.8291 296.336 95.5899 296.522 95.3875C296.708 95.1851 296.935 95.024 297.188 94.9147C297.441 94.8054 297.714 94.7504 297.989 94.753C298.265 94.7557 298.536 94.8161 298.787 94.9302L380.571 132.208C381.04 132.406 381.418 132.772 381.633 133.233C381.848 133.694 381.885 134.218 381.736 134.704C381.646 134.961 381.502 135.197 381.315 135.396C381.128 135.594 380.902 135.752 380.651 135.859C380.399 135.966 380.128 136.019 379.855 136.015C379.582 136.012 379.313 135.951 379.064 135.838Z" fill="white"/>
<path d="M64.2848 127.445L202.631 64.387L273.867 220.184L135.521 283.243L64.2848 127.445Z" fill="#F2F2F2"/>
<path d="M114.446 192.733L219.178 144.996C219.276 144.951 219.364 144.888 219.437 144.809C219.51 144.731 219.567 144.639 219.605 144.539C219.642 144.438 219.66 144.331 219.656 144.224C219.652 144.117 219.627 144.012 219.582 143.914C219.538 143.817 219.474 143.729 219.396 143.656C219.317 143.583 219.225 143.526 219.124 143.488C219.024 143.451 218.917 143.433 218.81 143.437C218.702 143.441 218.597 143.466 218.499 143.511L113.767 191.247C113.67 191.292 113.582 191.355 113.509 191.434C113.435 191.512 113.378 191.604 113.341 191.705C113.303 191.805 113.286 191.912 113.29 192.019C113.294 192.126 113.319 192.232 113.363 192.329C113.408 192.427 113.471 192.514 113.55 192.587C113.628 192.661 113.72 192.717 113.821 192.755C113.922 192.792 114.029 192.81 114.136 192.806C114.243 192.802 114.349 192.777 114.446 192.733Z" fill="white"/>
<path d="M108.623 179.996L213.354 132.259C213.552 132.169 213.705 132.004 213.781 131.802C213.857 131.599 213.849 131.374 213.759 131.177C213.669 130.98 213.504 130.827 213.301 130.751C213.098 130.676 212.873 130.684 212.675 130.774L107.944 178.511C107.846 178.555 107.758 178.618 107.685 178.697C107.612 178.775 107.555 178.867 107.517 178.968C107.48 179.068 107.462 179.175 107.466 179.282C107.47 179.389 107.495 179.495 107.539 179.592C107.584 179.69 107.647 179.777 107.726 179.851C107.804 179.924 107.897 179.981 107.997 180.018C108.098 180.055 108.205 180.073 108.312 180.069C108.419 180.065 108.525 180.04 108.623 179.996Z" fill="white"/>
<path d="M102.799 167.259L207.531 119.522C207.728 119.432 207.881 119.267 207.957 119.065C208.033 118.862 208.025 118.637 207.935 118.44C207.845 118.243 207.68 118.09 207.477 118.014C207.274 117.939 207.049 117.947 206.852 118.037L102.12 165.774C101.923 165.864 101.77 166.028 101.694 166.231C101.618 166.434 101.626 166.658 101.716 166.855C101.806 167.052 101.971 167.205 102.174 167.281C102.377 167.356 102.602 167.348 102.799 167.259Z" fill="white"/>
<path d="M96.9751 154.522L201.707 106.785C201.805 106.74 201.892 106.677 201.966 106.599C202.039 106.52 202.096 106.428 202.133 106.328C202.171 106.227 202.188 106.12 202.184 106.013C202.181 105.906 202.156 105.801 202.111 105.703C202.067 105.606 202.003 105.518 201.925 105.445C201.846 105.372 201.754 105.315 201.653 105.277C201.553 105.24 201.446 105.223 201.338 105.226C201.231 105.23 201.125 105.255 201.028 105.3L96.296 153.037C96.0987 153.127 95.9453 153.291 95.8695 153.494C95.7937 153.697 95.8017 153.921 95.8917 154.118C95.9818 154.315 96.1465 154.468 96.3497 154.544C96.5529 154.62 96.7778 154.612 96.9751 154.522Z" fill="white"/>
<path d="M119.71 204.243L224.441 156.506C224.639 156.417 224.792 156.252 224.868 156.049C224.944 155.846 224.936 155.622 224.846 155.425C224.756 155.228 224.591 155.075 224.388 154.999C224.184 154.923 223.959 154.931 223.762 155.021L119.03 202.758C118.933 202.803 118.845 202.866 118.772 202.944C118.698 203.023 118.641 203.115 118.604 203.215C118.566 203.316 118.549 203.423 118.553 203.53C118.557 203.637 118.582 203.742 118.626 203.84C118.671 203.937 118.734 204.025 118.813 204.098C118.891 204.171 118.984 204.228 119.084 204.266C119.185 204.303 119.292 204.32 119.399 204.317C119.506 204.313 119.612 204.288 119.71 204.243Z" fill="white"/>
<path d="M102.221 135.838L184.029 98.5496C184.49 98.3516 184.861 97.9916 185.073 97.5381C185.285 97.0846 185.323 96.5691 185.179 96.0897C185.091 95.8291 184.949 95.5899 184.763 95.3875C184.576 95.1851 184.349 95.024 184.097 94.9147C183.844 94.8054 183.571 94.7504 183.296 94.753C183.02 94.7557 182.749 94.8161 182.498 94.9302L100.714 132.208C100.245 132.406 99.8669 132.772 99.6516 133.233C99.4364 133.694 99.3997 134.218 99.5484 134.704C99.6392 134.961 99.7826 135.197 99.9696 135.396C100.157 135.594 100.383 135.752 100.634 135.859C100.886 135.966 101.157 136.019 101.43 136.015C101.703 136.012 101.972 135.951 102.221 135.838Z" fill="white"/>
<path d="M13.8298 311.408C14.7032 297.899 22.242 284.193 34.7921 279.07C30.5606 293.172 31.4614 308.314 37.3352 321.817C39.6194 327.016 42.7021 332.562 41.169 338.029C40.2152 341.431 37.5487 344.148 34.4934 345.929C31.4379 347.711 27.9869 348.678 24.5788 349.627L23.9327 350.229C17.718 338.197 12.9563 324.917 13.8298 311.408Z" fill="#F0F0F0"/>
<path d="M34.9342 279.316C27.9706 288.103 23.957 298.858 23.4635 310.052C23.3144 312.46 23.5464 314.876 24.151 317.212C24.8135 319.468 26.0691 321.506 27.7874 323.114C29.3594 324.646 31.1449 326.031 32.3166 327.917C32.9021 328.891 33.2746 329.978 33.4097 331.107C33.5448 332.235 33.4396 333.379 33.1009 334.464C32.3272 337.189 30.6191 339.473 28.8709 341.65C26.9299 344.066 24.8754 346.546 24.1731 349.639C24.088 350.013 23.5106 349.86 23.5955 349.485C24.8175 344.104 29.7822 340.795 31.952 335.885C32.9644 333.594 33.2914 330.984 32.079 328.701C31.0187 326.704 29.1787 325.275 27.5736 323.738C25.8744 322.194 24.5797 320.258 23.8026 318.099C23.0809 315.801 22.756 313.398 22.8419 310.991C22.9488 305.571 23.9086 300.201 25.6863 295.078C27.6826 289.22 30.6679 283.746 34.513 278.893C34.7511 278.593 35.1708 279.018 34.9342 279.316Z" fill="white"/>
<path d="M23.4099 306.438C21.54 306.1 19.8513 305.11 18.6452 303.644C17.4391 302.178 16.7942 300.332 16.8257 298.435C16.8277 298.357 16.8597 298.284 16.915 298.23C16.9702 298.175 17.0444 298.145 17.1219 298.144C17.1994 298.143 17.2742 298.173 17.3304 298.226C17.3867 298.279 17.42 298.352 17.4234 298.429C17.3908 300.196 17.9917 301.915 19.1176 303.278C20.2435 304.641 21.8203 305.557 23.5633 305.861C23.942 305.928 23.7864 306.504 23.4099 306.438Z" fill="white"/>
<path d="M26.888 322.443C30.0992 320.261 32.3688 316.951 33.2442 313.172C33.3306 312.798 33.9081 312.951 33.8218 313.325C32.9035 317.256 30.5346 320.696 27.1879 322.959C26.8687 323.174 26.5706 322.657 26.888 322.443Z" fill="white"/>
<path d="M28.2696 289.751C28.9658 290.032 29.721 290.137 30.4675 290.054C31.214 289.972 31.9283 289.706 32.5463 289.28C32.8626 289.06 33.1604 289.578 32.8462 289.796C32.1612 290.263 31.372 290.556 30.5474 290.649C29.7229 290.742 28.8882 290.632 28.1162 290.328C28.041 290.305 27.9772 290.255 27.9378 290.187C27.8984 290.12 27.8864 290.039 27.9041 289.963C27.9248 289.887 27.9748 289.822 28.0432 289.782C28.1117 289.742 28.193 289.731 28.2696 289.751Z" fill="white"/>
<path d="M75.2599 300.71C75.0664 300.852 74.8728 300.995 74.6793 301.143C72.0869 303.074 69.6559 305.212 67.4102 307.536C67.2338 307.713 67.0576 307.894 66.8866 308.076C61.5361 313.733 57.284 320.332 54.3464 327.538C53.1801 330.407 52.2341 333.36 51.5166 336.372C50.5258 340.532 49.7831 345.121 47.5399 348.608C47.31 348.975 47.0575 349.327 46.784 349.662L24.7176 350.969C24.6659 350.947 24.6143 350.93 24.5625 350.907L23.6838 351C23.71 350.842 23.7405 350.679 23.7666 350.521C23.7814 350.429 23.8011 350.337 23.8159 350.246C23.8273 350.184 23.8389 350.123 23.8457 350.067C23.8495 350.047 23.8534 350.026 23.8574 350.011C23.8642 349.955 23.8765 349.904 23.8836 349.853C24.0516 348.94 24.2263 348.027 24.4078 347.113C24.4075 347.108 24.4075 347.108 24.4121 347.103C25.8126 340.145 27.8072 333.242 30.7877 326.861C30.8774 326.669 30.9666 326.472 31.0665 326.279C32.4259 323.41 34.018 320.657 35.8267 318.047C36.8217 316.621 37.8883 315.247 39.0225 313.929C41.9598 310.528 45.4144 307.61 49.2598 305.281C56.9263 300.641 65.9941 298.499 74.6037 300.547C74.8239 300.599 75.0394 300.652 75.2599 300.71Z" fill="#F0F0F0"/>
<path d="M75.2269 300.992C64.3682 303.822 54.6785 309.996 47.5343 318.637C45.9632 320.47 44.6914 322.539 43.7655 324.768C42.9339 326.968 42.7075 329.35 43.1097 331.666C43.4414 333.834 44.032 336.013 43.8301 338.224C43.7099 339.354 43.3518 340.445 42.7794 341.427C42.2069 342.41 41.433 343.26 40.5084 343.922C38.2475 345.633 35.5059 346.43 32.7976 347.117C29.7906 347.88 26.6552 348.625 24.2293 350.672C23.9354 350.92 23.5671 350.45 23.8606 350.202C28.0811 346.64 34.0409 346.982 38.734 344.366C40.924 343.146 42.7587 341.259 43.1675 338.707C43.525 336.475 42.9179 334.228 42.5631 332.036C42.1375 329.781 42.2712 327.457 42.9526 325.266C43.7618 322.998 44.9517 320.884 46.4714 319.014C49.8254 314.75 53.8301 311.039 58.3386 308.018C63.465 304.541 69.1494 301.965 75.1458 300.401C75.517 300.305 75.5957 300.896 75.2269 300.992Z" fill="white"/>
<path d="M49.6707 315.72C48.3813 314.326 47.6301 312.52 47.5511 310.625C47.4722 308.729 48.0706 306.868 49.2397 305.372C49.4773 305.07 49.9582 305.424 49.7203 305.727C48.6291 307.117 48.0718 308.852 48.1489 310.617C48.226 312.382 48.9325 314.061 50.1409 315.352C50.4031 315.632 49.9314 315.999 49.6707 315.72Z" fill="white"/>
<path d="M42.7966 330.589C46.6764 330.778 50.4847 329.499 53.4621 327.008C53.7569 326.761 54.1253 327.231 53.8308 327.478C50.7276 330.064 46.7618 331.386 42.7249 331.182C42.3401 331.162 42.414 330.57 42.7966 330.589Z" fill="white"/>
<path d="M63.6132 305.318C63.9996 305.961 64.5398 306.498 65.1855 306.881C65.8311 307.264 66.5619 307.481 67.3123 307.512C67.6971 307.527 67.6229 308.119 67.2406 308.104C66.4117 308.066 65.6049 307.825 64.8906 307.404C64.1763 306.982 63.5763 306.392 63.143 305.686C63.0966 305.623 63.076 305.544 63.0854 305.466C63.0948 305.389 63.1336 305.317 63.1937 305.267C63.2562 305.219 63.3354 305.197 63.4139 305.206C63.4925 305.216 63.5641 305.256 63.6132 305.318Z" fill="white"/>
<path d="M343.573 284.553H136.705V51.5887H343.573V284.553Z" fill="white"/>
<path d="M343.573 284.553H136.705V51.5887H343.573V284.553ZM137.817 283.442H342.461V52.6992H137.817L137.817 283.442Z" fill="#CACACA"/>
<path d="M318.442 160.668H161.836C161.69 160.668 161.546 160.639 161.411 160.583C161.276 160.528 161.153 160.446 161.05 160.343C160.947 160.24 160.865 160.117 160.809 159.982C160.753 159.848 160.724 159.703 160.724 159.557C160.724 159.412 160.753 159.267 160.809 159.133C160.865 158.998 160.947 158.875 161.05 158.772C161.153 158.669 161.276 158.587 161.411 158.532C161.546 158.476 161.69 158.447 161.836 158.447H318.442C318.737 158.447 319.019 158.564 319.228 158.772C319.437 158.981 319.554 159.263 319.554 159.557C319.554 159.852 319.437 160.134 319.228 160.343C319.019 160.551 318.737 160.668 318.442 160.668Z" fill="#E4E4E4"/>
<path d="M318.442 141.622H161.836C161.541 141.622 161.258 141.505 161.05 141.297C160.841 141.089 160.724 140.806 160.724 140.512C160.724 140.217 160.841 139.935 161.05 139.727C161.258 139.518 161.541 139.401 161.836 139.401H318.442C318.737 139.401 319.019 139.518 319.228 139.727C319.437 139.935 319.554 140.217 319.554 140.512C319.554 140.806 319.437 141.089 319.228 141.297C319.019 141.505 318.737 141.622 318.442 141.622Z" fill="#E4E4E4"/>
<path d="M318.442 122.577H161.836C161.69 122.577 161.546 122.548 161.411 122.492C161.276 122.437 161.153 122.355 161.05 122.252C160.947 122.149 160.865 122.026 160.809 121.891C160.753 121.757 160.724 121.612 160.724 121.466C160.724 121.321 160.753 121.176 160.809 121.041C160.865 120.907 160.947 120.784 161.05 120.681C161.153 120.578 161.276 120.496 161.411 120.44C161.546 120.385 161.69 120.356 161.836 120.356H318.442C318.737 120.356 319.019 120.473 319.228 120.681C319.437 120.889 319.554 121.172 319.554 121.466C319.554 121.761 319.437 122.043 319.228 122.252C319.019 122.46 318.737 122.577 318.442 122.577Z" fill="#E4E4E4"/>
<path d="M318.442 103.531H161.836C161.541 103.531 161.258 103.414 161.05 103.206C160.841 102.998 160.724 102.716 160.724 102.421C160.724 102.126 160.841 101.844 161.05 101.636C161.258 101.428 161.541 101.311 161.836 101.311H318.442C318.737 101.311 319.019 101.428 319.228 101.636C319.437 101.844 319.554 102.126 319.554 102.421C319.554 102.716 319.437 102.998 319.228 103.206C319.019 103.414 318.737 103.531 318.442 103.531Z" fill="#E4E4E4"/>
<path d="M318.442 177.88H161.836C161.541 177.88 161.258 177.763 161.05 177.555C160.841 177.346 160.724 177.064 160.724 176.769C160.724 176.475 160.841 176.192 161.05 175.984C161.258 175.776 161.541 175.659 161.836 175.659H318.442C318.737 175.659 319.019 175.776 319.228 175.984C319.437 176.192 319.554 176.475 319.554 176.769C319.554 177.064 319.437 177.346 319.228 177.555C319.019 177.763 318.737 177.88 318.442 177.88Z" fill="#E4E4E4"/>
<path d="M318.442 263.327H161.836C161.541 263.327 161.258 263.21 161.05 263.002C160.841 262.794 160.724 262.511 160.724 262.217C160.724 261.922 160.841 261.64 161.05 261.432C161.258 261.223 161.541 261.106 161.836 261.106H318.442C318.737 261.106 319.019 261.223 319.228 261.432C319.437 261.64 319.554 261.922 319.554 262.217C319.554 262.511 319.437 262.794 319.228 263.002C319.019 263.21 318.737 263.327 318.442 263.327Z" fill="#E4E4E4"/>
<path d="M280.927 245.502H199.351C198.805 245.501 198.283 245.285 197.897 244.9C197.512 244.515 197.295 243.993 197.294 243.448V195.538C197.295 194.993 197.512 194.471 197.897 194.086C198.283 193.701 198.805 193.485 199.351 193.484H280.927C281.472 193.485 281.995 193.701 282.381 194.086C282.766 194.471 282.983 194.993 282.984 195.538V243.448C282.983 243.993 282.766 244.515 282.381 244.9C281.995 245.285 281.472 245.501 280.927 245.502Z" fill="white"/>
<path d="M253.685 218.131C253.269 217.687 252.769 217.331 252.213 217.084C251.658 216.838 251.058 216.705 250.45 216.694C249.841 216.683 249.237 216.794 248.673 217.021C248.109 217.248 247.596 217.586 247.165 218.015L224.208 240.937C223.601 241.541 222.78 241.881 221.923 241.882C221.066 241.883 220.243 241.546 219.635 240.944L216.235 237.556C215.815 237.136 215.316 236.803 214.766 236.575C214.217 236.348 213.628 236.231 213.034 236.231C212.439 236.231 211.85 236.348 211.301 236.575C210.752 236.803 210.252 237.136 209.832 237.556L203.251 244.133H277.026V243.195L253.685 218.131Z" fill="#6C63FF"/>
<path d="M280.927 245.502H199.351C198.805 245.501 198.283 245.285 197.897 244.9C197.512 244.515 197.295 243.993 197.294 243.448V195.538C197.295 194.993 197.512 194.471 197.897 194.086C198.283 193.701 198.805 193.485 199.351 193.484H280.927C281.472 193.485 281.995 193.701 282.381 194.086C282.766 194.471 282.983 194.993 282.984 195.538V243.448C282.983 243.993 282.766 244.515 282.381 244.9C281.995 245.285 281.472 245.501 280.927 245.502ZM199.351 194.853C199.169 194.853 198.995 194.926 198.866 195.054C198.738 195.182 198.665 195.356 198.665 195.538V243.448C198.665 243.63 198.738 243.804 198.866 243.932C198.995 244.061 199.169 244.133 199.351 244.133H280.927C281.109 244.133 281.283 244.061 281.412 243.932C281.54 243.804 281.612 243.63 281.613 243.448V195.538C281.612 195.356 281.54 195.182 281.412 195.054C281.283 194.926 281.109 194.853 280.927 194.853L199.351 194.853Z" fill="#3F3D56"/>
<path d="M84.2608 237.493C84.4676 236.765 84.512 236.001 84.3909 235.254C84.2699 234.507 83.9862 233.796 83.56 233.17C83.1337 232.544 82.5753 232.019 81.9239 231.632C81.2725 231.246 80.5441 231.006 79.79 230.931L75.5156 213.038L68.9642 220.008L74.0277 235.931C73.9847 237.204 74.4111 238.449 75.2259 239.429C76.0408 240.409 77.1876 241.057 78.4489 241.25C79.7103 241.443 80.9986 241.167 82.0698 240.474C83.1409 239.782 83.9205 238.721 84.2608 237.493Z" fill="#FFB6B6"/>
<path d="M72.8352 231.004C72.526 230.901 72.2419 230.734 72.0014 230.515C71.7609 230.295 71.5694 230.028 71.4393 229.729L62.3764 207.597C60.0653 202.29 59.7633 196.326 61.5267 190.815L67.3339 172.653C67.4221 171.676 67.7024 170.726 68.1586 169.858C68.6148 168.989 69.238 168.219 69.9926 167.591C70.7471 166.964 71.6183 166.49 72.5561 166.199C73.494 165.907 74.4802 165.803 75.4584 165.893C76.4365 165.982 77.3874 166.263 78.2568 166.72C79.1261 167.176 79.8967 167.799 80.5246 168.554C81.1525 169.308 81.6253 170.178 81.9161 171.115C82.2068 172.052 82.3098 173.036 82.2191 174.013L74.5177 203.258L79.6759 226.227C79.7566 226.696 79.6911 227.179 79.4882 227.61C79.2853 228.04 78.9549 228.399 78.5415 228.636L74.7181 230.817C74.3079 231.051 73.8362 231.154 73.3657 231.113C73.1852 231.098 73.0071 231.061 72.8352 231.004Z" fill="#E4E4E4"/>
<path d="M105.069 344.405H111.389L114.396 320.064H105.068L105.069 344.405Z" fill="#FFB6B6"/>
<path d="M103.457 342.345L115.904 342.344H115.905C118.008 342.345 120.026 343.179 121.514 344.664C123.001 346.15 123.837 348.164 123.837 350.264V350.522L103.457 350.523L103.457 342.345Z" fill="#2F2E41"/>
<path d="M69.496 344.405H75.8161L78.8234 320.064H69.4944L69.496 344.405Z" fill="#FFB6B6"/>
<path d="M67.8835 342.345L80.331 342.344H80.3315C82.4353 342.345 84.4529 343.179 85.9405 344.664C87.4281 346.15 88.2639 348.164 88.2641 350.264V350.522L67.8839 350.523L67.8835 342.345Z" fill="#2F2E41"/>
<path d="M108.875 221.63L71.8083 218.374C71.8083 218.374 68.1462 241.705 68.6617 250.971C69.1773 260.236 69.6928 274.649 69.6928 274.649L65.5684 337.447L81.5506 335.389L83.6128 283.399L90.3149 255.089L98.0482 291.121L103.204 337.447L117.124 335.903L112.484 279.796C112.484 279.796 116.608 229.351 108.875 221.63Z" fill="#2F2E41"/>
<path d="M93.9238 153.169C99.6185 153.169 104.235 148.56 104.235 142.875C104.235 137.189 99.6185 132.58 93.9238 132.58C88.2292 132.58 83.6128 137.189 83.6128 142.875C83.6128 148.56 88.2292 153.169 93.9238 153.169Z" fill="#FFB8B8"/>
<path d="M105.215 165.862L97.851 160.009C97.851 160.009 89.8759 153.865 85.1977 158.407L83.0972 161.405C83.0972 161.405 71.1889 165.862 71.1889 171.524L71.7551 202.585C71.7551 202.585 67.6307 218.542 73.8173 219.571L109.855 222.483L109.39 192.805L105.215 165.862Z" fill="#E4E4E4"/>
<path d="M85.9328 151.883C85.9328 151.883 75.1062 144.161 80.7772 134.896C84.7115 128.468 92.8639 128.977 97.4884 129.892C98.7342 130.121 99.9055 130.65 100.901 131.432C101.897 132.214 102.687 133.226 103.204 134.381C103.977 136.183 103.977 137.985 100.884 137.985C94.6972 137.985 97.7905 142.617 97.7905 142.617C97.7905 142.617 93.666 143.647 94.6972 147.25C95.7283 150.853 85.9328 151.883 85.9328 151.883Z" fill="#2F2E41"/>
<path d="M142.416 220.109C142.224 219.377 141.873 218.696 141.389 218.114C140.905 217.532 140.299 217.063 139.613 216.74C138.928 216.417 138.18 216.248 137.422 216.245C136.664 216.241 135.915 216.404 135.227 216.722L122.445 203.474L120.346 212.8L132.805 223.95C133.416 225.069 134.416 225.925 135.617 226.357C136.817 226.788 138.135 226.765 139.319 226.292C140.504 225.818 141.474 224.927 142.044 223.788C142.615 222.648 142.747 221.339 142.416 220.109Z" fill="#FFB6B6"/>
<path d="M129.272 220.311C128.954 220.379 128.624 220.379 128.305 220.312C127.986 220.245 127.685 220.111 127.421 219.92L108.358 205.447C103.669 202.048 100.375 197.063 99.0914 191.421L94.8581 172.83C94.4367 171.944 94.1945 170.983 94.1453 170.004C94.0962 169.024 94.241 168.044 94.5716 167.12C94.9022 166.196 95.4121 165.346 96.0719 164.619C96.7318 163.892 97.5288 163.302 98.4173 162.883C99.3058 162.464 100.268 162.224 101.25 162.177C102.231 162.13 103.213 162.276 104.137 162.608C105.062 162.94 105.912 163.45 106.639 164.111C107.366 164.771 107.955 165.568 108.373 166.456L116.612 195.555L132.736 212.728C133.044 213.091 133.233 213.54 133.278 214.014C133.322 214.488 133.219 214.964 132.984 215.378L130.799 219.195C130.565 219.604 130.211 219.933 129.785 220.136C129.622 220.214 129.449 220.273 129.272 220.311Z" fill="#E4E4E4"/>
<path d="M391.127 15.5334H93.3666C93.2523 15.533 93.1427 15.4873 93.062 15.4065C92.9813 15.3256 92.9359 15.2161 92.9359 15.1019C92.9359 14.9877 92.9813 14.8782 93.062 14.7973C93.1427 14.7164 93.2523 14.6708 93.3666 14.6704H391.127C391.241 14.6708 391.351 14.7164 391.432 14.7973C391.512 14.8782 391.558 14.9877 391.558 15.1019C391.558 15.2161 391.512 15.3256 391.432 15.4065C391.351 15.4873 391.241 15.533 391.127 15.5334Z" fill="#CACACA"/>
<path d="M103.094 9.49265C105.719 9.49265 107.847 7.36765 107.847 4.74633C107.847 2.125 105.719 0 103.094 0C100.468 0 98.3399 2.125 98.3399 4.74633C98.3399 7.36765 100.468 9.49265 103.094 9.49265Z" fill="#3F3D56"/>
<path d="M119.516 9.49265C122.141 9.49265 124.27 7.36765 124.27 4.74633C124.27 2.125 122.141 0 119.516 0C116.89 0 114.762 2.125 114.762 4.74633C114.762 7.36765 116.89 9.49265 119.516 9.49265Z" fill="#3F3D56"/>
<path d="M135.938 9.49265C138.564 9.49265 140.692 7.36765 140.692 4.74633C140.692 2.125 138.564 0 135.938 0C133.313 0 131.184 2.125 131.184 4.74633C131.184 7.36765 133.313 9.49265 135.938 9.49265Z" fill="#3F3D56"/>
<path d="M381.288 2.90318H369.619C369.391 2.90239 369.171 2.81112 369.01 2.64937C368.849 2.48762 368.758 2.26857 368.758 2.04021C368.758 1.81185 368.849 1.59281 369.01 1.43106C369.171 1.2693 369.391 1.17803 369.619 1.17725H381.288C381.516 1.17803 381.735 1.2693 381.897 1.43106C382.058 1.59281 382.149 1.81185 382.149 2.04021C382.149 2.26857 382.058 2.48762 381.897 2.64937C381.735 2.81112 381.516 2.90239 381.288 2.90318Z" fill="#3F3D56"/>
<path d="M381.288 6.13927H369.619C369.391 6.13848 369.171 6.04721 369.01 5.88546C368.849 5.7237 368.758 5.50466 368.758 5.2763C368.758 5.04794 368.849 4.82889 369.01 4.66714C369.171 4.50539 369.391 4.41412 369.619 4.41333H381.288C381.516 4.41412 381.735 4.50539 381.897 4.66714C382.058 4.82889 382.149 5.04794 382.149 5.2763C382.149 5.50466 382.058 5.7237 381.897 5.88546C381.735 6.04721 381.516 6.13848 381.288 6.13927Z" fill="#3F3D56"/>
<path d="M381.288 9.37547H369.619C369.391 9.37468 369.171 9.28341 369.01 9.12166C368.849 8.95991 368.758 8.74086 368.758 8.5125C368.758 8.28414 368.849 8.06509 369.01 7.90334C369.171 7.74159 369.391 7.65032 369.619 7.64954H381.288C381.516 7.65032 381.735 7.74159 381.897 7.90334C382.058 8.06509 382.149 8.28414 382.149 8.5125C382.149 8.74086 382.058 8.95991 381.897 9.12166C381.735 9.28341 381.516 9.37468 381.288 9.37547Z" fill="#3F3D56"/>
<path d="M196.941 350.654H0.515553C0.37882 350.654 0.247686 350.6 0.151001 350.504C0.0543166 350.407 0 350.276 0 350.14C0 350.003 0.0543166 349.872 0.151001 349.776C0.247686 349.679 0.37882 349.625 0.515553 349.625H196.941C197.078 349.625 197.209 349.679 197.306 349.776C197.402 349.872 197.457 350.003 197.457 350.14C197.457 350.276 197.402 350.407 197.306 350.504C197.209 350.6 197.078 350.654 196.941 350.654Z" fill="#CACACA"/>
<path d="M301.38 83.3705H179.051C178.369 83.3852 177.706 83.1492 177.187 82.7076C176.668 82.2659 176.33 81.6493 176.237 80.9749C176.198 80.6029 176.238 80.2269 176.354 79.8713C176.471 79.5157 176.66 79.1884 176.911 78.9106C177.162 78.6328 177.469 78.4108 177.811 78.2587C178.153 78.1067 178.524 78.0281 178.898 78.0281H301.19C301.882 78.0099 302.557 78.2483 303.084 78.6973C303.611 79.1463 303.953 79.7741 304.045 80.4599C304.078 80.8294 304.034 81.2017 303.915 81.5532C303.796 81.9047 303.605 82.2276 303.354 82.5014C303.104 82.7752 302.799 82.9939 302.459 83.1435C302.119 83.2931 301.751 83.3704 301.38 83.3705Z" fill="#6C63FF"/>
</g>
<defs>
<clipPath id="clip0_5_10">
<rect width="417" height="351" fill="white"/>
</clipPath>
</defs>
</svg>
