<svg width="55" height="55" viewBox="0 0 55 55" fill="none" xmlns="http://www.w3.org/2000/svg">
<path d="M2.03729 1.77612C2.03729 1.77612 0 2.95633 0 5.30529V17.0501C0 17.0501 0 24.1061 6.10958 27.633C7.98187 28.7147 9.28125 28.7972 10.1819 28.3984C11.0848 29.8376 12.3819 31.2538 14.2565 32.3355C20.366 35.8647 20.3706 28.8086 20.3706 28.8086V17.0661C20.3706 14.7126 22.4056 13.5392 22.4056 13.5392L30.5571 8.83216C30.5571 8.83216 32.5967 7.65425 34.6294 8.83216C36.669 10.0078 34.6294 11.1857 34.6294 11.1857L26.4917 15.8905L30.5594 18.2395L38.7154 13.5301C38.8346 13.4613 40.8054 12.3957 42.7785 13.5347C44.8181 14.7126 42.7785 15.8859 42.7785 15.8859L34.6317 20.593C34.6317 20.593 32.5967 21.7709 32.5967 24.1222V35.8647C32.5967 35.8647 32.5967 38.2205 30.5594 37.0426C28.5198 35.867 28.5198 33.5157 28.5198 33.5157L24.4452 31.1622C24.4452 31.1622 24.4475 38.2205 30.5594 41.7474C36.6713 45.2742 36.669 38.2182 36.669 38.2182V26.4711C36.669 24.1199 38.7062 22.9488 38.7062 22.9488L48.8927 17.0615C48.8927 17.0615 52.9627 14.7126 46.8554 11.1857C44.9785 10.0995 43.2987 9.57237 41.8665 9.35925C41.4906 8.54112 40.5717 7.58091 38.7108 6.51758C32.599 3.02737 26.4917 6.48091 26.4917 6.48091L18.3425 11.1857C18.3425 11.1857 16.3029 12.3636 16.3029 14.7126V26.4574C16.3029 26.4574 16.3029 28.8109 14.2633 27.6353C12.226 26.4574 12.2238 24.1061 12.2238 24.1061V12.3659C12.2238 12.2192 12.2306 12.0749 12.2467 11.9351C12.469 9.868 14.261 8.83446 14.261 8.83446L10.1865 6.48091L10.1773 6.4855C10.0581 6.55425 8.15146 7.73216 8.15146 10.0078V21.7526C8.15146 21.7526 8.14688 24.1061 6.10958 22.9305C4.07 21.7526 4.07229 19.4013 4.07229 19.4013V7.66112C4.07229 5.30987 6.10958 4.13196 6.10958 4.13196L2.03729 1.77841V1.77612ZM24.4498 21.7938V26.4986L28.5244 28.8476V24.1428L24.4521 21.7938H24.4498ZM43.796 26.7965C42.2698 26.808 40.7435 27.688 40.7435 31.1713C40.7435 38.1357 46.8531 41.7565 46.8531 41.7565L48.8904 42.9322C48.8904 42.9322 50.93 44.1101 50.93 46.4613C50.93 48.8126 48.8904 47.637 48.8904 47.637L40.7435 42.9322V47.637L48.8904 52.3417C48.8904 52.3417 55 55.8686 55 48.8126C55 41.7611 50.9277 39.4053 50.9277 39.4053L46.8531 37.0563C46.8531 37.0563 44.8181 35.8784 44.8181 33.5272C44.8181 31.1713 46.8531 32.347 46.8531 32.347L55 37.0517V32.347L46.8531 27.649C46.8531 27.649 45.3246 26.7874 43.796 26.7965Z" fill="white"/>
</svg>
