<svg width="619" height="502" viewBox="0 0 619 502" fill="none" xmlns="http://www.w3.org/2000/svg">
<path d="M0.418003 439.82C0.418003 419.151 6.03467 404.772 17.268 396.684C28.5013 388.147 42.206 383.878 58.382 383.878C74.1087 383.878 87.5887 388.147 98.822 396.684C110.055 404.772 115.672 419.151 115.672 439.82C115.672 459.591 110.055 473.969 98.822 482.956C87.5887 491.493 74.1087 495.762 58.382 495.762C42.206 495.762 28.5013 491.493 17.268 482.956C6.03467 473.969 0.418003 459.591 0.418003 439.82ZM0.418003 168.198C0.418003 147.529 6.03467 133.15 17.268 125.062C28.5013 116.525 42.206 112.256 58.382 112.256C74.1087 112.256 87.5887 116.525 98.822 125.062C110.055 133.15 115.672 147.529 115.672 168.198C115.672 187.969 110.055 202.347 98.822 211.334C87.5887 219.871 74.1087 224.14 58.382 224.14C42.206 224.14 28.5013 219.871 17.268 211.334C6.03467 202.347 0.418003 187.969 0.418003 168.198ZM268.101 323.218L167.001 395.336C221.595 460.714 317.977 501.828 430.535 501.828C579.489 501.828 696.765 451.278 696.765 354.896C696.765 288.844 639.475 255.818 570.053 243.686C639.475 234.25 678.567 186.396 678.567 133.824C678.567 39.464 555.899 0.371958 429.187 0.371958C319.325 0.371958 224.965 40.812 173.067 104.842L271.471 178.308C311.237 138.542 359.765 116.974 419.751 116.974C462.887 116.974 511.415 125.062 511.415 156.066C511.415 185.048 466.257 193.81 421.773 193.81H342.915V296.258H421.773C472.997 296.258 523.547 300.976 523.547 337.372C523.547 374.442 469.627 385.226 421.773 385.226C359.765 385.226 308.541 362.31 268.101 323.218Z" fill="white"/>
</svg>
