<svg width="55" height="55" viewBox="0 0 55 55" fill="none" xmlns="http://www.w3.org/2000/svg">
<g clip-path="url(#clip0_5_180)">
<path d="M27.5 0C42.6938 0 55 12.3062 55 27.5C54.9985 33.2619 53.1902 38.8784 49.8294 43.5587C46.4687 48.239 41.7249 51.7476 36.2656 53.5906C34.8906 53.8656 34.375 53.0062 34.375 52.2844C34.375 51.3563 34.4094 48.4 34.4094 44.7219C34.4094 42.1437 33.55 40.4937 32.5531 39.6344C38.6719 38.9469 45.1 36.6094 45.1 26.0562C45.1 23.0312 44.0344 20.5906 42.2813 18.6656C42.5563 17.9781 43.5188 15.1594 42.0063 11.3781C42.0063 11.3781 39.7031 10.6219 34.4438 14.1969C32.2438 13.5781 29.9063 13.2687 27.5688 13.2687C25.2313 13.2687 22.8938 13.5781 20.6938 14.1969C15.4344 10.6563 13.1313 11.3781 13.1313 11.3781C11.6188 15.1594 12.5813 17.9781 12.8563 18.6656C11.1031 20.5906 10.0375 23.0656 10.0375 26.0562C10.0375 36.575 16.4313 38.9469 22.55 39.6344C21.7594 40.3219 21.0375 41.525 20.7969 43.3125C19.2156 44.0344 15.2625 45.2031 12.7875 41.0437C12.2719 40.2188 10.725 38.1906 8.55938 38.225C6.25625 38.2594 7.63125 39.5312 8.59375 40.0469C9.7625 40.7 11.1031 43.1406 11.4125 43.9312C11.9625 45.4781 13.75 48.4344 20.6594 47.1625C20.6594 49.4656 20.6938 51.6312 20.6938 52.2844C20.6938 53.0062 20.1781 53.8312 18.8031 53.5906C13.3259 51.7675 8.5619 48.266 5.18681 43.5828C1.81172 38.8997 -0.00302665 33.2726 3.7892e-06 27.5C3.7892e-06 12.3062 12.3063 0 27.5 0Z" fill="white"/>
</g>
<defs>
<clipPath id="clip0_5_180">
<rect width="55" height="55" fill="white"/>
</clipPath>
</defs>
</svg>
