<svg width="55" height="55" viewBox="0 0 55 55" fill="none" xmlns="http://www.w3.org/2000/svg">
<path d="M44.1604 12.2145C41.1125 10.7937 37.8125 9.76244 34.375 9.16661C34.3449 9.16565 34.3149 9.1713 34.2872 9.18318C34.2595 9.19506 34.2347 9.21287 34.2146 9.23536C33.8021 9.99161 33.3208 10.977 33 11.7333C29.354 11.1833 25.646 11.1833 22 11.7333C21.6792 10.9541 21.1979 9.99161 20.7625 9.23536C20.7396 9.18953 20.6708 9.16661 20.6021 9.16661C17.1646 9.76244 13.8875 10.7937 10.8167 12.2145C10.7938 12.2145 10.7708 12.2374 10.7479 12.2604C4.51459 21.5874 2.79584 30.6624 3.64375 39.6458C3.64375 39.6916 3.66667 39.7374 3.7125 39.7604C7.8375 42.7854 11.8021 44.6187 15.7208 45.8333C15.7896 45.8562 15.8583 45.8333 15.8813 45.7874C16.7979 44.527 17.6229 43.1979 18.3333 41.7999C18.3792 41.7083 18.3333 41.6166 18.2417 41.5937C16.9354 41.0895 15.6979 40.4937 14.4833 39.8062C14.3917 39.7604 14.3917 39.6229 14.4604 39.5541C14.7125 39.3708 14.9646 39.1645 15.2167 38.9812C15.2625 38.9354 15.3313 38.9354 15.3771 38.9583C23.2604 42.5562 31.7625 42.5562 39.5542 38.9583C39.6 38.9354 39.6688 38.9354 39.7146 38.9812C39.9667 39.1874 40.2188 39.3708 40.4708 39.577C40.5625 39.6458 40.5625 39.7833 40.4479 39.8291C39.2563 40.5395 37.9958 41.1124 36.6896 41.6166C36.5979 41.6395 36.575 41.7541 36.5979 41.8229C37.3313 43.2208 38.1563 44.5499 39.05 45.8104C39.1188 45.8333 39.1875 45.8562 39.2563 45.8333C43.1979 44.6187 47.1625 42.7854 51.2875 39.7604C51.3333 39.7374 51.3563 39.6916 51.3563 39.6458C52.3646 29.2645 49.6833 20.2583 44.2521 12.2604C44.2292 12.2374 44.2063 12.2145 44.1604 12.2145ZM19.525 34.1687C17.1646 34.1687 15.1938 31.9916 15.1938 29.3104C15.1938 26.6291 17.1188 24.452 19.525 24.452C21.9542 24.452 23.8792 26.652 23.8563 29.3104C23.8563 31.9916 21.9313 34.1687 19.525 34.1687ZM35.4979 34.1687C33.1375 34.1687 31.1667 31.9916 31.1667 29.3104C31.1667 26.6291 33.0917 24.452 35.4979 24.452C37.9271 24.452 39.8521 26.652 39.8292 29.3104C39.8292 31.9916 37.9271 34.1687 35.4979 34.1687Z" fill="white"/>
</svg>
