<svg width="459" height="425" viewBox="0 0 459 425" fill="none" xmlns="http://www.w3.org/2000/svg">
<g clip-path="url(#clip0_3_446)" filter="url(#filter0_d_3_446)">
<path d="M414.882 334.083L378.272 279.674C378.272 279.674 433.716 299.04 427.423 334.083H414.882Z" fill="#E5E5E5"/>
<path d="M35.384 334.444L33.9942 334.417C34.5317 318.956 36.1805 303.553 38.9278 288.329C44.9378 255.733 54.9312 234.326 68.6307 224.703L69.4288 225.841C37.4267 248.322 35.4003 333.585 35.384 334.444Z" fill="#E5E5E5"/>
<path d="M52.7569 334.111L51.3671 334.084C51.3969 332.544 52.2656 296.251 66.5459 286.22L67.344 287.358C53.6398 296.984 52.7637 333.741 52.7569 334.111Z" fill="#E5E5E5"/>
<path d="M77.3354 225.967C81.1733 225.967 84.2846 222.854 84.2846 219.014C84.2846 215.174 81.1733 212.061 77.3354 212.061C73.4975 212.061 70.3862 215.174 70.3862 219.014C70.3862 222.854 73.4975 225.967 77.3354 225.967Z" fill="#6C63FF"/>
<path d="M73.8941 285.761C77.732 285.761 80.8433 282.648 80.8433 278.808C80.8433 274.968 77.732 271.855 73.8941 271.855C70.0562 271.855 66.9449 274.968 66.9449 278.808C66.9449 282.648 70.0562 285.761 73.8941 285.761Z" fill="#6C63FF"/>
<path d="M49.5178 230.135C50.8237 238.481 47.4199 245.946 47.4199 245.946C47.4199 245.946 41.8986 239.879 40.5926 231.533C39.2866 223.187 42.6905 215.722 42.6905 215.722C42.6905 215.722 48.2118 221.789 49.5178 230.135Z" fill="#E5E5E5"/>
<path d="M72.2326 250.405C64.2459 253.146 56.306 251.093 56.306 251.093C56.306 251.093 61.3149 244.596 69.3015 241.855C77.2881 239.114 85.2281 241.167 85.2281 241.167C85.2281 241.167 80.2192 247.664 72.2326 250.405Z" fill="#E5E5E5"/>
<path d="M72.4891 303.358C68.8744 304.494 65.0249 304.66 61.3258 303.84C63.6745 300.848 66.8379 298.6 70.4346 297.365C74.0314 296.131 77.9082 295.964 81.5979 296.883C79.1806 299.802 76.0396 302.035 72.4891 303.358Z" fill="#E5E5E5"/>
<path d="M454.305 335.474H4.69492C4.51061 335.474 4.33387 335.4 4.20355 335.27C4.07322 335.14 4 334.963 4 334.778C4 334.594 4.07322 334.417 4.20355 334.287C4.33387 334.156 4.51061 334.083 4.69492 334.083H454.305C454.489 334.083 454.666 334.156 454.796 334.287C454.927 334.417 455 334.594 455 334.778C455 334.963 454.927 335.14 454.796 335.27C454.666 335.4 454.489 335.474 454.305 335.474Z" fill="#CBCBCB"/>
<path d="M288.771 367.526L283.086 382.331L223.306 367.436L231.697 345.585L288.771 367.526Z" fill="#FFB7B7"/>
<path d="M304.564 369.263L286.233 417L285.629 416.768C280.704 414.875 276.732 411.101 274.588 406.278C272.443 401.455 272.301 395.977 274.193 391.049L274.193 391.048L285.39 361.892L304.564 369.263Z" fill="#2F2E41"/>
<path d="M197.933 182.158L171.882 184.598L170.59 262.151C170.935 265.952 172.754 269.466 175.658 271.941C178.561 274.416 182.318 275.656 186.123 275.393L202.64 274.255L197.933 182.158Z" fill="#E5E5E5"/>
<path d="M289.775 178.34L271.95 178.111L270.894 270.26C274.833 270.392 278.757 269.71 282.421 268.257C286.084 266.804 289.41 264.611 292.189 261.815C294.969 259.02 297.142 255.681 298.575 252.008C300.008 248.334 300.668 244.405 300.516 240.465L289.775 178.34Z" fill="#E5E5E5"/>
<path d="M186.346 302.997C185.924 305.67 185.311 308.309 184.513 310.894C183.613 313.425 182.225 315.765 181.402 318.322C178.781 326.471 182.415 335.558 188.219 341.848C193.253 347.282 199.75 351.142 206.927 352.963C212.163 354.281 217.608 354.47 223.004 354.653C237.947 355.16 253.274 355.614 267.433 350.809C271.906 349.254 276.227 347.29 280.341 344.942C281.639 344.323 282.784 343.422 283.69 342.304C284.77 340.765 284.908 338.77 284.898 336.891C284.867 330.553 283.582 324.247 283.887 317.917C284.056 314.41 284.712 310.906 284.389 307.411C283.942 303.441 282.28 299.706 279.63 296.717C276.98 293.729 273.471 291.632 269.585 290.716C265.568 289.853 261.402 290.323 257.313 290.716C246.698 291.737 236.038 292.214 225.375 292.145C214.48 292.075 203.652 290.411 192.811 290.238C189.605 290.186 189.67 291.175 188.649 294.28C187.709 297.137 186.94 300.048 186.346 302.997Z" fill="#2F2E41"/>
<path d="M143.742 297.846C140.812 297.109 137.793 296.788 134.774 296.892C131.602 297.067 128.504 297.916 125.685 299.383C122.866 300.849 120.392 302.899 118.426 305.396C116.46 307.893 115.049 310.781 114.285 313.866C113.521 316.951 113.422 320.164 113.995 323.291C114.726 326.677 115.922 329.947 117.548 333.006C119.927 337.835 122.779 342.653 127.182 345.747C129.757 347.557 132.738 348.686 135.683 349.796L158.872 358.536C162.283 359.822 165.695 361.108 169.14 362.3C186.447 368.286 204.492 371.875 222.771 372.968C228.339 373.299 233.992 373.392 239.424 372.123C240.713 371.823 242.088 371.374 242.834 370.28C243.276 369.51 243.536 368.648 243.596 367.762L245.023 357.768C245.224 356.36 245.417 354.879 244.901 353.554C244.248 351.875 242.609 350.818 241.047 349.92C225.802 341.16 208.002 336.327 195.171 324.303C192.15 321.473 189.622 316.986 185.952 315.063C181.79 312.883 176.888 311.639 172.586 309.63C163.181 305.237 153.935 300.19 143.742 297.846Z" fill="#2F2E41"/>
<path opacity="0.1" d="M166.892 311.319C175.088 313.889 209.692 331.691 215.624 337.907C214.829 338.193 187.854 323.069 187.045 322.825C179.687 320.616 172.289 318.392 165.302 315.159C163.896 314.509 156.17 311.452 156.52 309.677C156.915 307.675 165.437 310.863 166.892 311.319Z" fill="black"/>
<path d="M216.357 156.091L194.289 172.856C194.289 172.856 171.003 173.584 171.79 188.477C172.577 203.37 181.897 273.884 181.897 273.884L183.919 298.146L222.273 309.08C242.996 314.988 264.891 315.458 285.848 310.444L281.29 286.103C281.29 286.103 299.747 175.559 288.628 170.692C277.509 165.825 270.56 167.216 270.56 167.216L256.623 155.048L216.357 156.091Z" fill="#E5E5E5"/>
<path d="M281.679 129.013C281.679 150.776 261.566 147.484 236.756 147.484C211.945 147.484 191.832 150.776 191.832 129.013C191.832 107.25 201.657 68.6732 236.756 68.6732C273.063 68.6732 281.679 107.25 281.679 129.013Z" fill="#2F2E41"/>
<path d="M260.108 136.388C271.913 124.577 271.913 105.427 260.108 93.6153C248.303 81.8039 229.163 81.8039 217.357 93.6153C205.552 105.427 205.552 124.577 217.357 136.388C229.163 148.199 248.303 148.199 260.108 136.388Z" fill="#FFB7B7"/>
<path d="M201.678 114.236H213.635L218.909 99.4587L219.964 114.236H225.679L228.756 105.616L229.371 114.236H271.833C271.833 105.744 268.461 97.6007 262.46 91.5963C256.459 85.592 248.319 82.2188 239.833 82.2188H233.679C225.192 82.2188 217.052 85.592 211.051 91.5963C205.05 97.6007 201.678 105.744 201.678 114.236Z" fill="#2F2E41"/>
<path d="M267.086 159.568H206.628V232.572H267.086V159.568Z" fill="#6C63FF"/>
<path d="M209.96 366.831L215.645 381.635L275.425 366.74L267.034 344.89L209.96 366.831Z" fill="#FFB7B7"/>
<path d="M213.341 361.197L224.537 390.353L224.538 390.354C226.43 395.282 226.287 400.76 224.143 405.583C221.998 410.406 218.026 414.179 213.101 416.073L212.498 416.305L194.167 368.568L213.341 361.197Z" fill="#2F2E41"/>
<path d="M329.453 292.179C334.255 290.974 339.234 290.634 344.155 291.174C348.086 291.607 352.135 292.701 355.005 295.423C358.498 298.736 359.62 303.86 359.714 308.674C359.867 318.264 356.688 327.609 350.72 335.114C349.263 337.012 347.53 338.681 345.578 340.066C343.474 341.383 341.23 342.465 338.889 343.292L286.959 363.785C273.298 369.176 259.588 374.583 245.338 378.137C244.564 378.511 243.672 378.562 242.86 378.279C242.047 377.995 241.381 377.401 241.007 376.625C240.996 376.602 240.984 376.578 240.974 376.554C236.424 370.051 232.607 363.065 229.592 355.723C229.449 355.549 229.351 355.342 229.305 355.122C229.258 354.901 229.266 354.673 229.327 354.455C229.388 354.238 229.5 354.039 229.654 353.874C229.808 353.71 230 353.585 230.212 353.51L266.942 332.395C269.573 330.883 272.234 329.348 274.418 327.241C276.006 325.702 277.305 323.892 278.256 321.895C279.018 320.304 279.089 316.549 280.061 315.373C281.013 314.222 284.271 314.13 285.775 313.677C287.897 313.027 289.974 312.241 291.995 311.324C300.211 307.647 307.528 302.303 315.404 297.997C319.822 295.47 324.543 293.515 329.453 292.179Z" fill="#2F2E41"/>
<path opacity="0.1" d="M308.63 307.947C302.32 312.689 294.149 317.048 287.895 321.915C285.76 323.576 250.178 343.592 249.674 346.25C255.509 347.234 292.678 321.218 297.996 318.622C303.314 316.026 308.028 312.365 312.699 308.731C313.889 307.805 318.935 305.021 315.517 303.987C313.592 303.404 310.051 306.999 308.63 307.947Z" fill="black"/>
<path d="M422.052 124.952C434.044 124.952 443.766 115.225 443.766 103.226C443.766 91.2273 434.044 81.5002 422.052 81.5002C410.059 81.5002 400.337 91.2273 400.337 103.226C400.337 115.225 410.059 124.952 422.052 124.952Z" fill="#F1F1F1"/>
<path d="M381.864 128.844C390.276 128.844 397.096 122.02 397.096 113.603C397.096 105.186 390.276 98.3622 381.864 98.3622C373.451 98.3622 366.631 105.186 366.631 113.603C366.631 122.02 373.451 128.844 381.864 128.844Z" fill="#F1F1F1"/>
<path d="M102.826 118.902C109.572 118.902 115.04 113.43 115.04 106.681C115.04 99.9324 109.572 94.4612 102.826 94.4612C96.0806 94.4612 90.6123 99.9324 90.6123 106.681C90.6123 113.43 96.0806 118.902 102.826 118.902Z" fill="#F1F1F1"/>
<path d="M122.935 127.119C127.667 127.119 131.503 123.281 131.503 118.547C131.503 113.812 127.667 109.974 122.935 109.974C118.203 109.974 114.367 113.812 114.367 118.547C114.367 123.281 118.203 127.119 122.935 127.119Z" fill="#F1F1F1"/>
<path d="M241.42 18.6825C246.577 18.6825 250.757 14.5003 250.757 9.34126C250.757 4.18223 246.577 0 241.42 0C236.264 0 232.084 4.18223 232.084 9.34126C232.084 14.5003 236.264 18.6825 241.42 18.6825Z" fill="#F1F1F1"/>
<path opacity="0.17" d="M185.781 206.152L186.615 199.706C186.615 199.706 217.747 201.98 212.882 209.628C208.018 217.276 196.204 217.971 196.204 217.971L185.781 206.152Z" fill="#2F2E41"/>
<path d="M209.28 178.127C211.063 178.323 212.781 178.912 214.31 179.851C215.838 180.791 217.14 182.057 218.122 183.559C219.017 184.93 219.625 186.468 219.911 188.08C220.197 189.692 220.154 191.345 219.785 192.94C219.417 194.535 218.729 196.039 217.765 197.362C216.8 198.685 215.579 199.799 214.173 200.637C213.658 200.942 213.12 201.206 212.564 201.428L193.429 259.99C192.874 261.146 192.097 262.18 191.142 263.034C190.186 263.888 189.072 264.545 187.862 264.966C186.652 265.388 185.371 265.566 184.092 265.49C182.813 265.415 181.561 265.087 180.41 264.526C179.258 263.965 178.228 263.182 177.38 262.221C176.531 261.26 175.881 260.142 175.467 258.929C175.052 257.716 174.881 256.433 174.964 255.154C175.046 253.875 175.38 252.625 175.948 251.475L196.297 193.564C195.743 191.648 195.669 189.624 196.083 187.673C196.496 185.722 197.384 183.902 198.668 182.376C199.951 180.85 201.591 179.663 203.442 178.922C205.293 178.181 207.298 177.908 209.28 178.127Z" fill="#FFB7B7"/>
<path d="M186.066 200.255C186.066 200.255 197.03 218.998 212.882 209.628L197.52 268.448H184.577L171.187 265.946L174.936 241.644L186.066 200.255Z" fill="#E5E5E5"/>
<path d="M264.355 213.066L255.272 200.589C255.272 200.589 259.638 187.648 276.565 192.381C276.565 192.381 287.337 216.504 264.355 213.066Z" fill="#E5E5E5"/>
<path opacity="0.17" d="M264.355 213.066L255.272 200.589C255.272 200.589 259.638 187.648 276.565 192.381C276.565 192.381 287.337 216.504 264.355 213.066Z" fill="#2F2E41"/>
<path d="M266.76 169.475C269.381 170.694 271.477 172.813 272.667 175.447C273.857 178.082 274.063 181.057 273.247 183.83L293.596 241.741C294.164 242.891 294.498 244.141 294.581 245.42C294.663 246.7 294.492 247.982 294.078 249.195C293.663 250.408 293.013 251.527 292.165 252.488C291.316 253.448 290.287 254.232 289.135 254.793C287.983 255.354 286.731 255.681 285.452 255.757C284.173 255.833 282.892 255.654 281.682 255.233C280.472 254.811 279.358 254.155 278.402 253.301C277.447 252.446 276.67 251.412 276.115 250.256L256.98 191.695C256.424 191.472 255.886 191.208 255.371 190.903C253.965 190.065 252.744 188.951 251.779 187.628C250.815 186.305 250.128 184.801 249.759 183.206C249.39 181.611 249.347 179.958 249.633 178.346C249.919 176.734 250.527 175.196 251.422 173.825C252.404 172.323 253.706 171.057 255.235 170.117C256.763 169.178 258.481 168.589 260.264 168.393C262.488 168.141 264.738 168.515 266.76 169.475Z" fill="#FFB7B7"/>
<path d="M255.272 200.589C255.272 200.589 270.258 209.687 276.565 192.381L297.683 248.013L291.408 258.993L290.5 259.069C286.757 259.381 282.994 258.779 279.534 257.316C276.074 255.852 273.021 253.57 270.637 250.665C265.774 244.741 262.464 237.698 261.006 230.172L255.272 200.589Z" fill="#E5E5E5"/>
</g>
<defs>
<filter id="filter0_d_3_446" x="0" y="0" width="459" height="425" filterUnits="userSpaceOnUse" color-interpolation-filters="sRGB">
<feFlood flood-opacity="0" result="BackgroundImageFix"/>
<feColorMatrix in="SourceAlpha" type="matrix" values="0 0 0 0 0 0 0 0 0 0 0 0 0 0 0 0 0 0 127 0" result="hardAlpha"/>
<feOffset dy="4"/>
<feGaussianBlur stdDeviation="2"/>
<feComposite in2="hardAlpha" operator="out"/>
<feColorMatrix type="matrix" values="0 0 0 0 0 0 0 0 0 0 0 0 0 0 0 0 0 0 0.25 0"/>
<feBlend mode="normal" in2="BackgroundImageFix" result="effect1_dropShadow_3_446"/>
<feBlend mode="normal" in="SourceGraphic" in2="effect1_dropShadow_3_446" result="shape"/>
</filter>
<clipPath id="clip0_3_446">
<rect width="451" height="417" fill="white" transform="translate(4)"/>
</clipPath>
</defs>
</svg>
