<svg width="1144" height="841" viewBox="0 0 1144 841" fill="none" xmlns="http://www.w3.org/2000/svg">
<path d="M-24.3703 736.9C-24.3703 702.247 -14.9536 678.14 3.87973 664.58C22.7131 650.267 45.6897 643.11 72.8097 643.11C99.1764 643.11 121.776 650.267 140.61 664.58C159.443 678.14 168.86 702.247 168.86 736.9C168.86 770.047 159.443 794.153 140.61 809.22C121.776 823.533 99.1764 830.69 72.8097 830.69C45.6897 830.69 22.7131 823.533 3.87973 809.22C-14.9536 794.153 -24.3703 770.047 -24.3703 736.9ZM-24.3703 281.51C-24.3703 246.857 -14.9536 222.75 3.87973 209.19C22.7131 194.877 45.6897 187.72 72.8097 187.72C99.1764 187.72 121.776 194.877 140.61 209.19C159.443 222.75 168.86 246.857 168.86 281.51C168.86 314.657 159.443 338.763 140.61 353.83C121.776 368.143 99.1764 375.3 72.8097 375.3C45.6897 375.3 22.7131 368.143 3.87973 353.83C-14.9536 338.763 -24.3703 314.657 -24.3703 281.51ZM424.416 541.41L254.916 662.32C346.446 771.93 508.036 840.86 696.746 840.86C946.476 840.86 1143.1 756.11 1143.1 594.52C1143.1 483.78 1047.05 428.41 930.656 408.07C1047.05 392.25 1112.59 312.02 1112.59 223.88C1112.59 65.68 906.926 0.139929 694.486 0.139929C510.296 0.139929 352.096 67.9399 265.086 175.29L430.066 298.46C496.736 231.79 578.096 195.63 678.666 195.63C750.986 195.63 832.346 209.19 832.346 261.17C832.346 309.76 756.636 324.45 682.056 324.45H549.846V496.21H682.056C767.936 496.21 852.686 504.12 852.686 565.14C852.686 627.29 762.286 645.37 682.056 645.37C578.096 645.37 492.216 606.95 424.416 541.41Z" fill="white"/>
</svg>
