<svg width="1169" height="841" viewBox="0 0 1169 841" fill="none" xmlns="http://www.w3.org/2000/svg">
<path d="M0.629731 736.9C0.629731 702.247 10.0464 678.14 28.8797 664.58C47.7131 650.267 70.6897 643.11 97.8097 643.11C124.176 643.11 146.776 650.267 165.61 664.58C184.443 678.14 193.86 702.247 193.86 736.9C193.86 770.047 184.443 794.153 165.61 809.22C146.776 823.533 124.176 830.69 97.8097 830.69C70.6897 830.69 47.7131 823.533 28.8797 809.22C10.0464 794.153 0.629731 770.047 0.629731 736.9ZM0.629731 281.51C0.629731 246.857 10.0464 222.75 28.8797 209.19C47.7131 194.877 70.6897 187.72 97.8097 187.72C124.176 187.72 146.776 194.877 165.61 209.19C184.443 222.75 193.86 246.857 193.86 281.51C193.86 314.657 184.443 338.763 165.61 353.83C146.776 368.143 124.176 375.3 97.8097 375.3C70.6897 375.3 47.7131 368.143 28.8797 353.83C10.0464 338.763 0.629731 314.657 0.629731 281.51ZM449.416 541.41L279.916 662.32C371.446 771.93 533.036 840.86 721.746 840.86C971.476 840.86 1168.1 756.11 1168.1 594.52C1168.1 483.78 1072.05 428.41 955.656 408.07C1072.05 392.25 1137.59 312.02 1137.59 223.88C1137.59 65.68 931.926 0.139929 719.486 0.139929C535.296 0.139929 377.096 67.9399 290.086 175.29L455.066 298.46C521.736 231.79 603.096 195.63 703.666 195.63C775.986 195.63 857.346 209.19 857.346 261.17C857.346 309.76 781.636 324.45 707.056 324.45H574.846V496.21H707.056C792.936 496.21 877.686 504.12 877.686 565.14C877.686 627.29 787.286 645.37 707.056 645.37C603.096 645.37 517.216 606.95 449.416 541.41Z" fill="white"/>
</svg>
