<svg width="321" height="259" viewBox="0 0 321 259" fill="none" xmlns="http://www.w3.org/2000/svg">
<g clip-path="url(#clip0_70_31)">
<path d="M91.4442 174.237C111.799 174.237 128.3 157.725 128.3 137.355C128.3 116.986 111.799 100.474 91.4442 100.474C71.0893 100.474 54.5884 116.986 54.5884 137.355C54.5884 157.725 71.0893 174.237 91.4442 174.237Z" fill="#E6E6E6"/>
<path d="M81.4865 191.213L90.5525 196.835V158.833L80.3906 152.532C79.5505 152.011 78.9366 151.193 78.6705 150.24C79.6414 150.055 80.6464 150.241 81.4865 150.762L90.5526 156.384V141.648C90.5526 138.797 90.9019 135.957 91.5928 133.191C92.2838 135.957 92.6331 138.797 92.6331 141.648V165.699L106.008 157.406C107.076 156.743 108.312 156.402 109.568 156.423C109.027 157.558 108.172 158.513 107.104 159.175L92.6331 168.149V258.779H90.5525V199.284L80.3906 192.983C79.5505 192.462 78.9366 191.644 78.6705 190.691C79.6413 190.506 80.6464 190.692 81.4865 191.213Z" fill="#CCCCCC"/>
<path d="M36.8558 177.369C57.2108 177.369 73.7117 160.856 73.7117 140.487C73.7117 120.118 57.2108 103.605 36.8558 103.605C16.5009 103.605 0 120.118 0 140.487C0 160.856 16.5009 177.369 36.8558 177.369Z" fill="#E6E6E6"/>
<path d="M46.8135 194.344L37.7474 199.966V161.964L47.9094 155.663C48.7495 155.142 49.3634 154.324 49.6294 153.372C48.6586 153.186 47.6536 153.372 46.8134 153.893L37.7474 159.515V144.779C37.7474 141.928 37.3981 139.088 36.7071 136.323C36.0162 139.088 35.6669 141.928 35.6669 144.779V168.831L22.292 160.537C21.224 159.875 19.9883 159.534 18.7321 159.554C19.2728 160.689 20.1281 161.645 21.196 162.307L35.6669 171.28V258.218H37.7474V202.415L47.9094 196.114C48.7495 195.593 49.3634 194.775 49.6294 193.823C48.6586 193.637 47.6536 193.823 46.8135 194.344Z" fill="#CCCCCC"/>
<path d="M63.6284 127.002C98.6745 127.002 127.085 98.5718 127.085 63.5011C127.085 28.4304 98.6745 0 63.6284 0C28.5824 0 0.171997 28.4304 0.171997 63.5011C0.171997 98.5718 28.5824 127.002 63.6284 127.002Z" fill="#E6E6E6"/>
<path d="M80.7732 156.23L65.1638 165.909V100.48L82.66 89.6305C84.1065 88.7335 85.1635 87.3255 85.6216 85.6854C83.9501 85.3659 82.2197 85.6864 80.7732 86.5833L65.1638 96.2628V70.8913C65.1638 65.9831 64.5623 61.0933 63.3727 56.3317C62.1831 61.0933 61.5816 65.9831 61.5816 70.8913V112.302L38.5533 98.0224C36.7145 96.8821 34.587 96.2948 32.4241 96.3302C33.3551 98.2842 34.8276 99.9292 36.6664 101.069L61.5816 116.519V258.358H65.1638V170.126L82.66 159.277C84.1065 158.38 85.1635 156.972 85.6216 155.332C83.9501 155.012 82.2197 155.333 80.7732 156.23Z" fill="#CCCCCC"/>
<path d="M321 258.241H12.7318V259H321V258.241Z" fill="#3F3D56"/>
<path d="M243.78 61.0879H242.919V17.8469C242.919 13.9232 241.361 10.1602 238.589 7.38569C235.816 4.61123 232.056 3.05255 228.135 3.05255H131.905C127.984 3.05255 124.223 4.61123 121.451 7.38569C118.678 10.1602 117.121 13.9232 117.121 17.8469V36.7924H116.794C116.564 36.7924 116.343 36.884 116.181 37.0469C116.018 37.2099 115.926 37.4309 115.926 37.6613V46.1343C115.926 46.3647 116.018 46.5857 116.181 46.7487C116.343 46.9116 116.564 47.0032 116.794 47.0032H117.121V55.4837H116.719C116.605 55.4837 116.492 55.5062 116.386 55.5498C116.281 55.5935 116.185 55.6575 116.105 55.7382C116.024 55.8189 115.96 55.9147 115.916 56.0201C115.873 56.1255 115.85 56.2385 115.85 56.3526V72.3877C115.85 72.6182 115.942 72.8392 116.105 73.0021C116.268 73.1651 116.488 73.2566 116.719 73.2566H117.121V79.4757H116.757C116.643 79.4757 116.53 79.4982 116.424 79.5418C116.319 79.5855 116.223 79.6495 116.143 79.7301C116.062 79.8108 115.998 79.9066 115.954 80.012C115.911 80.1174 115.888 80.2304 115.888 80.3445V96.5315C115.888 96.762 115.98 96.983 116.143 97.146C116.305 97.3089 116.526 97.4005 116.757 97.4005H117.121V244.104C117.121 248.027 118.678 251.79 121.451 254.565C124.223 257.339 127.984 258.898 131.905 258.898H228.135C232.056 258.898 235.816 257.339 238.589 254.565C241.361 251.79 242.919 248.027 242.919 244.104V92.0998H243.78C244.01 92.0998 244.231 92.0082 244.394 91.8453C244.557 91.6823 244.648 91.4613 244.648 91.2309V61.9569C244.648 61.7264 244.557 61.5054 244.394 61.3424C244.231 61.1795 244.01 61.0879 243.78 61.0879Z" fill="#3F3D56"/>
<path d="M183.984 14.4508H169.352C168.913 14.4503 168.491 14.2755 168.181 13.9647C167.87 13.6539 167.695 13.2325 167.695 12.7929V12.1589C167.695 11.7193 167.87 11.2979 168.181 10.9871C168.491 10.6763 168.913 10.5015 169.352 10.5011H183.984C184.423 10.5015 184.845 10.6763 185.155 10.9871C185.466 11.2979 185.641 11.7193 185.641 12.1589V12.7929C185.641 13.2325 185.466 13.6539 185.155 13.9647C184.845 14.2755 184.423 14.4503 183.984 14.4508Z" fill="white"/>
<path d="M190.131 14.5041C191.249 14.5041 192.155 13.5969 192.155 12.4779C192.155 11.3588 191.249 10.4517 190.131 10.4517C189.012 10.4517 188.106 11.3588 188.106 12.4779C188.106 13.5969 189.012 14.5041 190.131 14.5041Z" fill="white"/>
<path d="M225.159 9.71552H210.75V11.4496C210.75 13.6333 209.883 15.7276 208.34 17.2718C206.797 18.8159 204.704 19.6834 202.522 19.6834H156.619C155.539 19.6839 154.47 19.4715 153.472 19.0584C152.474 18.6453 151.567 18.0395 150.803 17.2756C150.039 16.5117 149.432 15.6047 149.019 14.6064C148.605 13.608 148.392 12.5379 148.391 11.4571V9.71552H134.881C132.231 9.71552 129.69 10.7689 127.816 12.6439C125.943 14.519 124.89 17.0621 124.89 19.7138V242.233C124.89 244.885 125.943 247.428 127.816 249.303C129.69 251.178 132.231 252.231 134.881 252.231H225.159C227.807 252.231 230.348 251.178 232.221 249.304C234.094 247.43 235.146 244.888 235.146 242.237V19.7138C235.147 18.4013 234.889 17.1015 234.387 15.8888C233.886 14.676 233.151 13.5739 232.223 12.6455C231.296 11.7171 230.196 10.9805 228.984 10.4777C227.773 9.97502 226.474 9.71601 225.162 9.71552H225.159Z" fill="white"/>
<path d="M199.356 225.23H160.68C157.915 225.23 155.262 224.13 153.307 222.174C151.351 220.217 150.253 217.563 150.253 214.795C150.253 212.028 151.351 209.374 153.307 207.417C155.262 205.46 157.915 204.361 160.68 204.361H199.356C202.121 204.361 204.774 205.46 206.729 207.417C208.685 209.374 209.783 212.028 209.783 214.795C209.783 217.563 208.685 220.217 206.729 222.174C204.774 224.13 202.121 225.23 199.356 225.23Z" fill="#6C63FF"/>
<path d="M214.523 139.518H145.513C144.558 139.518 143.642 139.139 142.966 138.463C142.291 137.787 141.911 136.87 141.911 135.914C141.911 134.958 142.291 134.041 142.966 133.365C143.642 132.689 144.558 132.309 145.513 132.309H214.523C215.478 132.309 216.395 132.689 217.07 133.365C217.746 134.041 218.125 134.958 218.125 135.914C218.125 136.87 217.746 137.787 217.07 138.463C216.395 139.139 215.478 139.518 214.523 139.518Z" fill="#E6E6E6"/>
<path d="M214.523 150.143H145.513C144.558 150.143 143.642 149.763 142.966 149.087C142.291 148.411 141.911 147.494 141.911 146.538C141.911 145.582 142.291 144.665 142.966 143.989C143.642 143.313 144.558 142.933 145.513 142.933H214.523C215.478 142.933 216.395 143.313 217.07 143.989C217.746 144.665 218.125 145.582 218.125 146.538C218.125 147.494 217.746 148.411 217.07 149.087C216.395 149.763 215.478 150.143 214.523 150.143Z" fill="#E6E6E6"/>
<path d="M214.523 160.767H145.513C144.558 160.767 143.642 160.387 142.966 159.711C142.291 159.035 141.911 158.118 141.911 157.162C141.911 156.206 142.291 155.29 142.966 154.614C143.642 153.938 144.558 153.558 145.513 153.558H214.523C215.478 153.558 216.395 153.938 217.07 154.614C217.746 155.29 218.125 156.206 218.125 157.162C218.125 158.118 217.746 159.035 217.07 159.711C216.395 160.387 215.478 160.767 214.523 160.767Z" fill="#E6E6E6"/>
<path d="M214.523 171.391H145.513C144.558 171.391 143.642 171.012 142.966 170.336C142.291 169.66 141.911 168.743 141.911 167.787C141.911 166.831 142.291 165.914 142.966 165.238C143.642 164.562 144.558 164.182 145.513 164.182H214.523C215.478 164.182 216.395 164.562 217.07 165.238C217.746 165.914 218.125 166.831 218.125 167.787C218.125 168.743 217.746 169.66 217.07 170.336C216.395 171.012 215.478 171.391 214.523 171.391Z" fill="#E6E6E6"/>
<path d="M167.505 182.016H145.513C144.558 182.016 143.642 181.636 142.966 180.96C142.291 180.284 141.911 179.367 141.911 178.411C141.911 177.455 142.291 176.538 142.966 175.862C143.642 175.186 144.558 174.806 145.513 174.806H167.505C168.461 174.806 169.377 175.186 170.053 175.862C170.728 176.538 171.108 177.455 171.108 178.411C171.108 179.367 170.728 180.284 170.053 180.96C169.377 181.636 168.461 182.016 167.505 182.016Z" fill="#E6E6E6"/>
<path d="M225.324 109.978H134.712C133.911 109.978 133.143 109.659 132.577 109.092C132.01 108.525 131.692 107.757 131.691 106.955V39.6568C131.692 38.8553 132.01 38.0868 132.577 37.52C133.143 36.9532 133.911 36.6344 134.712 36.6335H225.324C226.125 36.6344 226.893 36.9532 227.459 37.52C228.026 38.0868 228.344 38.8553 228.345 39.6568V106.955C228.344 107.757 228.026 108.525 227.459 109.092C226.893 109.659 226.125 109.978 225.324 109.978Z" fill="#E6E6E6"/>
<g opacity="0.1">
<path d="M241.374 90.7679C241.374 90.2468 241.374 89.7231 241.374 89.197C241.353 89.6027 241.353 90.0092 241.374 90.415C241.37 90.5326 241.374 90.6502 241.374 90.7679Z" fill="black"/>
</g>
<path d="M256.489 120.605C261.984 120.605 266.438 116.147 266.438 110.649C266.438 105.15 261.984 100.693 256.489 100.693C250.994 100.693 246.54 105.15 246.54 110.649C246.54 116.147 250.994 120.605 256.489 120.605Z" fill="#FFB8B8"/>
<path d="M282.365 191.381C282.753 191.025 283.059 190.588 283.26 190.102C283.461 189.615 283.554 189.09 283.53 188.564C283.507 188.037 283.369 187.522 283.125 187.055C282.881 186.588 282.538 186.181 282.12 185.861L280.764 173.802L273.209 175.866L276.887 186.719C276.396 187.458 276.194 188.351 276.317 189.229C276.44 190.107 276.881 190.91 277.557 191.485C278.232 192.059 279.094 192.366 279.98 192.347C280.867 192.328 281.715 191.984 282.365 191.381Z" fill="#FFB8B8"/>
<path d="M287.885 252.435L292.055 249.736L283.636 232.356L277.481 236.34L287.885 252.435Z" fill="#FFB8B8"/>
<path d="M302.601 248.405L289.496 256.888L286.221 251.821L294.452 246.493C295.092 246.079 295.807 245.795 296.557 245.657C297.307 245.519 298.076 245.531 298.822 245.691C299.567 245.851 300.274 246.156 300.901 246.589C301.529 247.023 302.065 247.575 302.479 248.216L302.601 248.405Z" fill="#2F2E41"/>
<path d="M250.957 254.201H255.923L258.286 235.032H250.957V254.201Z" fill="#FFB8B8"/>
<path d="M265.5 258.816H249.892V252.781H259.695C261.235 252.781 262.711 253.393 263.8 254.482C264.889 255.572 265.5 257.049 265.5 258.59V258.816Z" fill="#2F2E41"/>
<path d="M270.888 130.417C270.227 132.569 272.568 134.912 273.324 137.027C274.08 139.142 275.096 141.177 275.505 143.391C275.785 144.913 282.12 178.527 281.815 180.574C279.865 179.989 277.765 180.182 275.953 181.112C274.688 178.887 273.928 176.411 273.726 173.86C273.65 172.347 273.664 170.83 273.769 169.319C273.966 165.043 272.113 160.76 272.052 156.481C272.071 154.998 271.954 153.516 271.702 152.054C271.499 151.049 271.517 149.167 271.299 148.165C270.952 146.573 272.445 145.838 272.362 144.205L271.908 135.29C271.812 133.728 270.246 131.813 270.888 130.417Z" fill="#2F2E41"/>
<path d="M248.426 167.823C246.829 170.315 243.468 170.855 241.117 172.64C237.524 175.385 246.689 237.043 249.715 247.996C257.699 246.798 257.979 246.802 258.897 246.398C259.815 245.995 260.645 214.677 262.585 208.221C266.216 211.645 277.643 241.073 280.054 247.597C289.634 245.2 280.054 247.597 292.429 244.401C292.325 242.14 274.142 168.466 273.479 162.661C265.16 164.319 256.721 166.169 248.426 167.823Z" fill="#2F2E41"/>
<path d="M247.349 121.524C246.363 124.447 247.706 135.822 247.804 138.38C247.945 140.702 247.945 143.03 247.804 145.352C247.463 149.373 246.268 153.422 247.07 157.375C247.595 159.992 248.529 162.423 248.747 165.086C248.895 166.93 248.849 168.806 249.432 170.555C251.583 169.632 270.648 166.462 272.049 164.618C271.09 159.986 272.018 155.202 271.382 150.514C271.014 147.812 270.101 145.211 269.671 142.521C269.14 139.201 269.364 135.757 268.396 132.533C267.86 130.9 267.178 129.318 266.359 127.807C265.526 126.089 264.482 124.677 264.124 124.678C263.218 124.727 247.407 121.263 247.349 121.524Z" fill="#6C63FF"/>
<path d="M243.7 191.131C243.7 191.131 247.005 184.53 247.171 180.755C247.23 179.399 250.941 174.004 252.612 172.781C256.575 169.875 259.496 150.403 258.157 145.678C255.841 137.51 251.939 129.895 247.979 122.388C247.861 122.108 247.67 121.864 247.426 121.684C246.621 121.182 245.749 122.169 245.199 122.941C243.334 125.557 240.262 126.956 237.448 128.502C234.634 130.049 231.756 132.108 230.905 135.204C230.333 137.282 230.779 139.487 231.212 141.592C231.645 143.698 233.16 145.371 234.305 147.144C235.634 149.102 239.084 157.784 239.058 158.814C239.126 165.184 239.19 171.575 238.419 177.902C237.986 181.478 237.605 188.662 237.605 188.662L243.7 191.131Z" fill="#2F2E41"/>
<path d="M273.72 184.306C267.634 170.444 267.975 154.67 264.108 140.037C262.959 135.693 261.423 131.328 261.699 126.842C261.748 126.04 261.917 125.139 262.587 124.69C263.183 124.291 263.994 124.398 264.648 124.69C265.303 124.982 265.862 125.459 266.492 125.785C267.509 126.304 268.691 126.452 269.668 127.039C271.118 127.912 271.859 129.572 272.507 131.134C273.892 134.469 275.272 137.897 275.382 141.512C275.616 148.534 272.504 155.282 274.126 162.11C274.476 163.456 274.894 164.784 275.379 166.088C277.005 170.798 278.339 175.604 279.373 180.478C279.554 181.312 273.975 184.89 273.72 184.306Z" fill="#2F2E41"/>
<path d="M254.4 181.026C254.482 180.505 254.448 179.973 254.302 179.467C254.155 178.961 253.9 178.493 253.553 178.097C253.207 177.7 252.778 177.384 252.296 177.172C251.814 176.959 251.292 176.855 250.765 176.866L242.183 168.293L237.568 174.625L247.213 180.806C247.29 181.689 247.689 182.514 248.333 183.123C248.978 183.732 249.823 184.083 250.709 184.111C251.595 184.138 252.46 183.839 253.14 183.27C253.82 182.702 254.269 181.903 254.4 181.026Z" fill="#FFB8B8"/>
<path d="M227.055 161.556C227.197 162.845 238.009 176.429 243.884 180.863C243.543 179.113 248.148 173.408 249.638 172.516C245.915 169.001 238.135 160.849 237.878 160.404C237.036 158.777 237.878 156.834 238.612 155.153C240.926 149.807 242.016 143.741 240.532 138.106C239.973 135.991 238.996 133.873 237.218 132.573C236.44 132.007 235.39 131.62 234.527 132.05C234.165 132.258 233.851 132.54 233.605 132.877C230.849 136.231 226.951 160.6 227.055 161.556Z" fill="#2F2E41"/>
<path d="M252.248 119.361C252.829 116.894 249.893 111.587 250.474 109.121C250.867 107.451 254.792 108.586 255.708 107.135C256.624 105.685 258.158 104.509 259.873 104.49C261.844 104.468 263.783 105.931 265.65 105.299C267.538 104.659 268.141 102.072 267.307 100.261C266.472 98.4501 264.674 97.296 262.898 96.3917C259.873 94.8518 256.351 93.7272 253.114 94.7461C251.156 95.362 249.52 96.6965 247.937 98.0018C246.493 99.1916 245.025 100.408 244.016 101.984C242.039 105.071 242.159 109.23 243.848 112.483C245.537 115.736 248.615 118.123 252.007 119.509" fill="#2F2E41"/>
</g>
<defs>
<clipPath id="clip0_70_31">
<rect width="321" height="259" fill="white"/>
</clipPath>
</defs>
</svg>
