<svg width="270" height="37" viewBox="0 0 270 37" fill="none" xmlns="http://www.w3.org/2000/svg">
<path d="M21.949 13.568C16.638 13.145 13.677 12.816 13.677 11.218C13.677 9.432 17.531 9.009 20.868 9.009C25.803 9.009 30.174 9.996 33.887 12.44L39.339 5.766C34.592 2.617 27.777 1.019 20.868 1.019C10.199 1.019 2.35 4.967 2.35 12.158C2.35 19.678 11.327 21.981 21.432 22.874C27.542 23.391 29.422 23.955 29.422 25.553C29.422 27.198 27.119 27.997 22.419 27.997C15.98 27.997 10.387 26.07 6.627 23.25L0.94 29.83C6.251 33.825 13.677 36.081 22.231 36.081C34.404 36.081 40.749 31.475 40.749 24.378C40.749 16.576 32.947 14.461 21.949 13.568ZM76.2557 28.232L67.1847 24.519C65.9157 27.057 63.5657 27.903 61.0277 27.903C56.9387 27.903 54.1187 25.741 54.1187 21.887C54.1187 18.08 56.9387 15.918 61.0277 15.918C63.6127 15.918 65.8217 16.764 66.9967 19.161L76.1147 15.495C73.9997 11.359 69.2057 7.693 60.9337 7.693C50.3587 7.693 43.6377 13.145 43.6377 21.887C43.6377 30.676 50.3587 36.081 60.9337 36.081C69.2527 36.081 74.0937 32.509 76.2557 28.232ZM100.991 7.881C96.6199 7.881 93.1419 9.526 90.8389 12.628V9.573V0.22H79.7469V8.821V35H90.8389V19.678C92.6249 16.999 94.7399 15.871 97.0899 15.871C99.9099 15.871 101.508 17.516 101.508 20.101V35H112.553V19.396C112.553 12.675 108.37 7.881 100.991 7.881ZM134.054 36.081C144.723 36.081 151.538 30.723 151.538 21.887C151.538 13.098 144.723 7.74 134.054 7.74C123.385 7.74 116.57 13.098 116.57 21.887C116.57 30.723 123.385 36.081 134.054 36.081ZM134.054 27.856C130.012 27.856 127.051 25.741 127.051 21.887C127.051 18.033 130.012 15.965 134.054 15.965C138.143 15.965 141.057 18.033 141.057 21.887C141.057 25.741 138.143 27.856 134.054 27.856ZM166.938 35V0.22H155.893V35H166.938ZM187.448 7.787C183.03 7.787 177.437 8.633 173.724 10.278L175.886 17.14C179.176 15.636 182.372 15.213 185.145 15.213C190.315 15.213 193.041 16.952 193.041 20.148V21.793C191.067 19.772 187.589 18.409 183.312 18.409C177.907 18.409 171.045 20.571 171.045 27.151C171.045 33.778 177.907 35.94 183.312 35.94C187.589 35.94 191.067 34.577 193.041 32.603V32.697C193.041 33.496 193.417 34.342 193.887 35H205.026C204.227 33.496 203.898 31.992 203.898 30.112V20.289C203.898 12.252 197.788 7.787 187.448 7.787ZM193.229 27.386C191.584 29.407 188.858 29.924 186.696 29.924C184.487 29.924 181.761 29.313 181.761 27.151C181.761 25.036 184.487 24.425 186.696 24.425C188.858 24.425 191.584 24.942 193.229 26.963V27.386ZM220.548 35V23.25C221.676 19.255 225.389 17.234 230.841 17.234V8.163C226.47 8.163 222.71 9.714 220.548 13.192V8.821H209.456V35H220.548ZM239.547 23.579L232.497 28.608C236.304 33.167 243.025 36.034 250.874 36.034C261.261 36.034 269.439 32.509 269.439 25.788C269.439 21.182 265.444 18.879 260.603 18.033C265.444 17.375 268.17 14.038 268.17 10.372C268.17 3.792 259.616 1.066 250.78 1.066C243.119 1.066 236.539 3.886 232.92 8.351L239.782 13.474C242.555 10.701 245.939 9.197 250.122 9.197C253.13 9.197 256.514 9.761 256.514 11.923C256.514 13.944 253.365 14.555 250.263 14.555H244.764V21.699H250.263C253.835 21.699 257.36 22.028 257.36 24.566C257.36 27.151 253.6 27.903 250.263 27.903C245.939 27.903 242.367 26.305 239.547 23.579Z" fill="white"/>
</svg>
